# xmcd CD database file
#
# Track frame offsets:
#	150
#	19757
#	36045
#	47955
#	60167
#	72935
#	83722
#	104927
#	117120
#	131330
#	149545
#	170300
#	183867
#	197847
#	213162
#	233627
#	238797
#	251962
#
# Disc length: 3550 seconds
#
# Revision: 0
# Processed by: cddbd v1.4PL0 Copyright (c) Steve Scherf et al.
# Submitted via: CDex 1.50Beta7
#
DISCID=fd0ddc12
DTITLE=Art Tatum - Swings
DYEAR=2002
DGENRE=Jazz
TTITLE0=I Know That You Know
TTITLE1=Fifty Second Street Blues
TTITLE2=St Louis Blues
TTITLE3=Gang O'Notes
TTITLE4=Between Midnight And Down
TTITLE5=Apollo Boogie
TTITLE6=Dark Eyes
TTITLE7=Hallelujah
TTITLE8=Memories of You
TTITLE9=Midnight Melody
TTITLE10=Body And Soul
TTITLE11=Song Of The Vagabonds
TTITLE12=Honeysuckle Rose
TTITLE13=Come Rain Or Come Shine
TTITLE14=On The Sunny Side Of The Street
TTITLE15=Kerry Dance
TTITLE16=Runnin' Wild
TTITLE17=Poor Butterfly
EXTD=YEAR: 2002
EXTT0=
EXTT1=
EXTT2=
EXTT3=
EXTT4=
EXTT5=
EXTT6=
EXTT7=
EXTT8=
EXTT9=
EXTT10=
EXTT11=
EXTT12=
EXTT13=
EXTT14=
EXTT15=
EXTT16=
EXTT17=
PLAYORDER=
